<svg width="160" height="136" viewBox="0 0 160 136" fill="none" xmlns="http://www.w3.org/2000/svg">
  <path d="M26 101.5L82.8 5.1C86.6 -1.3 95.8 -1.7 100.2 4.3L141.6 61.3C144.5 65.3 144.7 70.7 142 74.9L126.9 98.5C124.6 102.1 120.6 104.3 116.3 104.3H26V101.5Z" fill="#F81B20"/>
  <path d="M54.3 95.6L83.3 45.4C86.2 40.4 93.3 40.3 96.3 45.1L87.6 60.1L67.6 95.6H54.3Z" fill="white"/>
  <path d="M75.4 95.6L102.8 48.2C105.7 43.2 112.9 43.1 115.9 47.9L107.2 62.8L88.7 95.6H75.4Z" fill="white"/>
  <path d="M111.7 101.5L136 62.6C140 56.2 149.6 55.6 154.4 61.5L157.1 64.8C161 69.6 161.2 76.4 157.6 81.4L144.4 99.7C142 103.1 138.1 105.1 133.9 105.1H111.7V101.5Z" fill="#6F7075"/>
</svg>
